<svg version="1.1" id="Layer_1" xmlns="http://www.w3.org/2000/svg" xmlns:xlink="http://www.w3.org/1999/xlink" x="0px" y="0px"
	 width="100%" viewBox="0 0 1238 293" enable-background="new 0 0 1238 293" xml:space="preserve">
<path fill="#FFFFFF" opacity="1.000000" stroke="none" 
	d="
M1239.000000,201.000000 
	C1239.000000,231.969727 1239.000000,262.939453 1239.000000,294.000000 
	C1122.644043,294.000000 1006.288086,294.000000 889.666504,293.624512 
	C891.224609,293.166016 893.047485,293.045380 894.872070,293.006073 
	C905.979919,292.766785 914.752197,287.987762 919.798889,278.195587 
	C925.672546,266.798828 927.458008,254.161911 928.918762,241.642166 
	C923.311523,240.000946 917.931152,238.692673 912.747925,236.834290 
	C907.534302,234.965012 902.516907,232.548416 896.897888,230.151733 
	C896.246338,234.468369 895.831970,238.654373 894.958313,242.742188 
	C891.906555,257.020050 889.043213,263.285034 871.661499,263.061157 
	C851.339050,262.799438 831.010742,263.001556 810.684937,262.999390 
	C800.358154,262.998260 797.430054,259.345581 799.801331,248.753738 
	C827.728149,248.753738 855.777710,248.753738 883.739746,248.753738 
	C883.739746,216.960129 883.739746,185.699387 883.739746,154.293289 
	C814.777466,154.293289 746.075745,154.293289 677.341064,154.293289 
	C677.341064,185.966278 677.341064,217.344757 677.341064,249.250305 
	C706.395142,249.250305 735.111633,249.250305 764.000000,249.250305 
	C764.000000,257.602264 763.987976,265.425812 764.003113,273.249268 
	C764.021057,282.500610 768.206360,288.057373 777.188232,291.115601 
	C779.217529,291.806549 781.067444,293.024597 783.000000,294.000000 
	C576.644043,294.000000 370.288055,294.000000 163.466034,293.531342 
	C163.000000,256.804352 163.000000,220.546021 163.000000,184.393753 
	C183.058838,184.393753 202.445999,184.393753 221.998032,184.393753 
	C221.998032,197.947083 222.239349,211.113022 221.921875,224.265488 
	C221.666733,234.835434 219.054550,236.999542 208.440323,236.999924 
	C200.709030,237.000214 192.977737,237.000000 185.954102,237.000000 
	C188.741318,250.533676 191.422363,263.551788 193.982056,275.980713 
	C207.203094,275.980713 220.793472,276.436096 234.330383,275.782959 
	C240.813736,275.470184 246.793945,272.373566 251.823166,267.757019 
	C258.822144,261.332336 260.852539,252.974564 260.916077,244.154282 
	C261.134460,213.823959 261.003479,183.491104 260.990234,153.159210 
	C260.989532,151.550552 260.847290,149.941956 260.772125,148.358841 
	C188.677216,148.358841 116.959663,148.358841 45.241600,148.358841 
	C45.241600,160.321350 45.241600,171.923416 45.241600,184.061508 
	C71.534073,184.061508 97.590553,184.061508 124.000000,184.061508 
	C124.000000,221.066422 124.000000,257.533203 124.000000,294.000000 
	C83.057419,294.000000 42.114845,294.000000 1.000000,294.000000 
	C1.000000,232.310806 1.000000,170.621445 1.331490,108.563644 
	C3.090419,109.282928 4.836778,110.125198 5.893543,111.498222 
	C12.757768,120.416740 19.472038,129.450668 26.984196,139.442780 
	C46.794136,127.862312 67.321671,115.862350 88.313797,103.590797 
	C88.313797,111.594475 88.313797,119.183266 88.313797,126.596466 
	C134.092972,126.596466 179.471207,126.596466 224.990875,126.596466 
	C224.990875,119.037231 224.990875,111.880226 224.990875,104.815613 
	C244.730179,115.841530 264.408722,126.833511 283.025238,137.232254 
	C292.896667,124.338387 301.840851,112.655693 310.780212,100.979294 
	C311.093048,101.158981 310.608276,100.788124 310.061584,100.579826 
	C287.069641,91.819435 265.505920,80.216949 244.936325,66.861626 
	C233.166336,59.219677 221.918777,50.724499 210.811447,42.128365 
	C203.912918,36.789505 197.434296,30.822615 191.292587,24.617573 
	C186.107422,19.378958 181.695099,13.377595 176.894684,7.753113 
	C176.300095,7.056468 175.482437,6.226264 174.666168,6.095733 
	C169.659882,5.295164 164.612000,4.757138 159.601547,3.979686 
	C153.721817,3.067352 147.866119,2.000075 142.000000,1.000000 
	C507.544708,1.000000 873.089417,1.000000 1239.000000,1.000000 
	C1239.000000,66.688858 1239.000000,132.378387 1238.593262,198.532501 
	C1207.724487,191.760986 1179.112549,180.543945 1154.732422,159.872925 
	C1178.326172,159.872925 1201.920044,159.872925 1225.705322,159.872925 
	C1225.705322,149.808807 1225.705322,140.089325 1225.705322,129.882950 
	C1181.370239,129.882950 1137.327026,129.882950 1092.968750,129.882950 
	C1096.150513,121.682564 1099.122070,114.023781 1102.093628,106.364998 
	C1102.438599,106.468254 1102.783569,106.571503 1103.128540,106.674751 
	C1103.128540,108.960968 1103.128540,111.247177 1103.128540,113.712524 
	C1136.490601,113.712524 1169.552612,113.712524 1202.654175,113.712524 
	C1202.654175,83.704773 1202.654175,53.985806 1202.654175,24.404068 
	C1169.254028,24.404068 1136.201294,24.404068 1102.626221,24.404068 
	C1102.626221,50.826263 1102.626221,76.846443 1102.626221,103.018585 
	C1093.788452,101.454414 1085.489746,99.985641 1076.869141,98.459915 
	C1076.869141,73.656883 1076.869141,49.055859 1076.869141,24.308769 
	C1043.112915,24.308769 1009.727722,24.308769 976.367188,24.308769 
	C976.367188,54.338230 976.367188,84.057411 976.367188,114.140564 
	C1005.944275,114.140564 1035.156006,114.140564 1065.139771,114.140564 
	C1062.869995,118.134277 1060.541992,121.363220 1059.122070,124.951561 
	C1057.399780,129.303802 1054.520752,130.108047 1050.238647,130.084961 
	C1020.407837,129.924164 990.575684,130.000000 960.743958,130.000000 
	C958.965149,130.000000 957.186340,130.000000 955.331909,130.000000 
	C955.331909,140.268097 955.331909,149.988266 955.331909,160.075195 
	C979.223633,160.075195 1002.786438,160.075195 1026.349243,160.075195 
	C1001.360535,180.530807 972.014343,191.756439 942.320923,201.108871 
	C947.795532,211.019760 952.970032,220.387344 958.338989,230.106827 
	C964.844421,227.820038 971.703857,225.408829 979.139221,222.795166 
	C979.139221,245.124542 979.139221,266.881744 979.139221,288.645203 
	C1012.313232,288.645203 1045.032104,288.645203 1077.763672,288.645203 
	C1077.763672,258.022217 1077.763672,227.754639 1077.763672,196.871521 
	C1061.927612,196.871521 1046.315308,196.871521 1030.056274,196.871521 
	C1031.410156,195.817184 1032.025513,195.284775 1032.692017,194.826736 
	C1046.265625,185.497208 1059.340454,175.622971 1069.929932,162.779327 
	C1071.242554,161.187424 1074.111694,160.179443 1076.291870,160.121857 
	C1086.617432,159.849060 1096.955688,159.917343 1107.285400,160.093765 
	C1108.753418,160.118851 1110.513428,161.083054 1111.606567,162.154861 
	C1120.102905,170.486435 1128.385376,179.036850 1136.917114,187.331421 
	C1140.243408,190.565338 1144.039673,193.315796 1148.686768,197.169495 
	C1132.296265,197.169495 1117.265625,197.169495 1102.236328,197.169495 
	C1102.236328,227.977570 1102.236328,258.245148 1102.236328,288.705444 
	C1135.191650,288.705444 1167.910156,288.705444 1200.939209,288.705444 
	C1200.939209,267.142395 1200.939209,245.870407 1200.939209,224.261963 
	C1206.235718,226.111313 1211.145752,227.845566 1216.069336,229.539963 
	C1222.693237,231.819473 1222.615479,231.777084 1224.941650,225.221283 
	C1228.112793,216.283432 1231.749512,207.584320 1239.000000,201.000000 
M749.091003,97.028275 
	C730.054138,97.074387 711.017334,97.120499 691.480042,97.122841 
	C691.375549,97.407883 691.270996,97.692924 691.028320,98.906952 
	C691.074402,104.277863 691.120422,109.648773 691.122986,115.520020 
	C691.408020,115.624474 691.693054,115.728935 692.908997,115.971718 
	C712.279175,115.925613 731.649353,115.879501 751.519897,115.877144 
	C751.624451,115.592102 751.728943,115.307060 751.971436,114.100487 
	C751.592102,108.727097 751.212769,103.353706 750.877014,97.479973 
	C750.591980,97.375511 750.306946,97.271057 749.091003,97.028275 
M356.998779,239.500687 
	C367.259888,226.631943 377.520966,213.763214 388.019043,200.597275 
	C388.019043,230.960114 388.019043,261.291626 388.019043,291.652100 
	C400.967041,291.652100 413.353821,291.652100 426.111633,291.652100 
	C426.111633,257.415741 426.111633,223.525558 426.111633,188.728058 
	C428.859467,191.822144 430.820648,194.416351 433.165710,196.597961 
	C439.935425,202.895920 447.120209,208.769730 453.617462,215.329620 
	C457.047089,218.792313 458.357178,217.723831 460.960175,214.556763 
	C467.348206,206.784393 474.224091,199.413025 480.903717,191.880356 
	C481.349487,192.191986 481.795227,192.503632 482.240997,192.815262 
	C482.240997,216.751892 482.240997,240.688507 482.240997,264.652130 
	C523.966614,264.652130 565.351624,264.652130 606.596436,264.652130 
	C606.596436,194.254089 606.596436,124.203926 606.596436,54.284378 
	C564.924988,54.284378 523.657654,54.284378 481.915924,54.284378 
	C481.915924,99.289520 481.915924,144.013062 481.915924,189.724075 
	C480.082458,188.688049 478.947021,188.212143 478.003204,187.486832 
	C470.605255,181.801743 463.056000,176.292297 455.923279,170.289185 
	C448.471466,164.017441 440.902496,157.733200 434.409607,150.530579 
	C430.510498,146.205292 423.331787,142.636276 426.659088,133.973648 
	C441.464447,133.973648 456.534363,133.973648 471.664185,133.973648 
	C471.664185,122.724220 471.664185,112.004112 471.664185,100.749718 
	C456.274109,100.749718 441.214905,100.749718 426.000000,100.749718 
	C426.000000,90.050247 426.407990,79.866821 425.840485,69.738045 
	C425.521729,64.049515 427.723053,62.264240 432.798370,60.861225 
	C445.718994,57.289463 458.440796,52.998589 472.520721,48.595711 
	C464.710632,37.660206 457.736267,27.894869 450.955780,18.400982 
	C412.789398,34.669987 372.846405,41.310009 332.403595,45.631424 
	C336.963470,56.271542 341.594482,67.077705 346.291656,78.038200 
	C359.983459,76.036186 373.784821,74.018143 387.634918,71.992981 
	C387.634918,81.993507 387.634918,91.386330 387.634918,101.131836 
	C368.668579,101.131836 350.064453,101.131836 331.306702,101.131836 
	C331.306702,112.216064 331.306702,122.935616 331.306702,134.147141 
	C349.649231,134.147141 367.691193,134.147141 386.211151,134.147141 
	C385.645111,135.458679 385.419495,136.226120 385.014740,136.883194 
	C376.117096,151.328125 367.929901,166.283417 358.080109,180.048615 
	C348.261047,193.770935 338.033295,207.420258 324.513794,218.013229 
	C322.123322,219.886246 322.855865,221.101242 325.228241,222.787842 
	C334.491486,229.373489 343.534180,236.269394 353.463654,243.648026 
	C353.971405,243.037643 355.233917,241.519928 356.998779,239.500687 
M664.498962,130.000000 
	C669.924622,130.000000 675.350342,130.000000 681.110107,130.000000 
	C681.110107,116.022972 681.110107,102.753036 681.110107,89.286484 
	C708.851013,89.286484 736.231812,89.286484 764.146851,89.286484 
	C764.146851,107.954987 764.146851,126.344193 764.146851,144.602570 
	C776.072388,144.602570 787.459106,144.602570 799.192017,144.602570 
	C799.192017,125.939392 799.192017,107.671623 799.192017,89.326675 
	C826.932373,89.326675 854.313354,89.326675 882.228821,89.326675 
	C882.228821,103.038857 882.228821,116.429405 882.228821,129.737549 
	C894.034363,129.737549 905.301697,129.737549 916.684204,129.737549 
	C916.684204,107.758385 916.684204,86.042992 916.684204,63.802601 
	C877.322083,63.802601 838.272827,63.802601 799.244202,63.802601 
	C799.244202,59.336227 799.244202,55.399059 799.244202,50.940857 
	C832.867004,50.940857 866.250549,50.940857 899.648193,50.940857 
	C899.648193,41.687492 899.648193,32.967995 899.648193,24.387562 
	C820.926208,24.387562 742.556030,24.387562 664.268188,24.387562 
	C664.268188,33.378906 664.268188,41.979965 664.268188,51.104546 
	C697.582764,51.104546 730.633545,51.104546 763.623535,51.104546 
	C763.623535,55.693676 763.623535,59.746422 763.623535,64.141464 
	C724.320251,64.141464 685.392151,64.141464 646.300293,64.141464 
	C646.300293,86.210236 646.300293,107.925545 646.300293,130.000000 
	C652.229919,130.000000 657.864929,130.000000 664.498962,130.000000 
M830.500122,97.000000 
	C823.746643,97.000000 816.993164,97.000000 810.403137,97.000000 
	C810.403137,103.759819 810.403137,109.811996 810.403137,115.738098 
	C831.060181,115.738098 851.313110,115.738098 871.685425,115.738098 
	C871.685425,109.424156 871.685425,103.375122 871.685425,97.000000 
	C858.082336,97.000000 844.791260,97.000000 830.500122,97.000000 
M842.500000,124.000000 
	C831.751648,124.000000 821.003296,124.000000 810.398376,124.000000 
	C810.398376,130.749939 810.398376,136.801712 810.398376,142.742859 
	C831.050598,142.742859 851.303467,142.742859 871.690186,142.742859 
	C871.690186,136.434113 871.690186,130.385315 871.690186,124.000000 
	C862.089172,124.000000 852.794556,124.000000 842.500000,124.000000 
M752.000000,130.575058 
	C752.000000,128.480103 752.000000,126.385139 752.000000,124.368553 
	C731.298401,124.368553 711.258789,124.368553 691.245605,124.368553 
	C691.245605,130.672531 691.245605,136.604813 691.245605,142.715683 
	C711.530884,142.715683 731.569885,142.715683 752.000000,142.715683 
	C752.000000,138.811188 752.000000,135.181183 752.000000,130.575058 
z"/>
<path fill="#2092FB" opacity="1.000000" stroke="none" 
	d="
M1239.000000,200.666672 
	C1231.749512,207.584320 1228.112793,216.283432 1224.941650,225.221283 
	C1222.615479,231.777084 1222.693237,231.819473 1216.069336,229.539963 
	C1211.145752,227.845566 1206.235718,226.111313 1200.939209,224.261963 
	C1200.939209,245.870407 1200.939209,267.142395 1200.939209,288.705444 
	C1167.910156,288.705444 1135.191650,288.705444 1102.236328,288.705444 
	C1102.236328,258.245148 1102.236328,227.977570 1102.236328,197.169495 
	C1117.265625,197.169495 1132.296265,197.169495 1148.686768,197.169495 
	C1144.039673,193.315796 1140.243408,190.565338 1136.917114,187.331421 
	C1128.385376,179.036850 1120.102905,170.486435 1111.606567,162.154861 
	C1110.513428,161.083054 1108.753418,160.118851 1107.285400,160.093765 
	C1096.955688,159.917343 1086.617432,159.849060 1076.291870,160.121857 
	C1074.111694,160.179443 1071.242554,161.187424 1069.929932,162.779327 
	C1059.340454,175.622971 1046.265625,185.497208 1032.692017,194.826736 
	C1032.025513,195.284775 1031.410156,195.817184 1030.056274,196.871521 
	C1046.315308,196.871521 1061.927612,196.871521 1077.763672,196.871521 
	C1077.763672,227.754639 1077.763672,258.022217 1077.763672,288.645203 
	C1045.032104,288.645203 1012.313232,288.645203 979.139221,288.645203 
	C979.139221,266.881744 979.139221,245.124542 979.139221,222.795166 
	C971.703857,225.408829 964.844421,227.820038 958.338989,230.106827 
	C952.970032,220.387344 947.795532,211.019760 942.320923,201.108871 
	C972.014343,191.756439 1001.360535,180.530807 1026.349243,160.075195 
	C1002.786438,160.075195 979.223633,160.075195 955.331909,160.075195 
	C955.331909,149.988266 955.331909,140.268097 955.331909,130.000000 
	C957.186340,130.000000 958.965149,130.000000 960.743958,130.000000 
	C990.575684,130.000000 1020.407837,129.924164 1050.238647,130.084961 
	C1054.520752,130.108047 1057.399780,129.303802 1059.122070,124.951561 
	C1060.541992,121.363220 1062.869995,118.134277 1065.139771,114.140564 
	C1035.156006,114.140564 1005.944275,114.140564 976.367188,114.140564 
	C976.367188,84.057411 976.367188,54.338230 976.367188,24.308769 
	C1009.727722,24.308769 1043.112915,24.308769 1076.869141,24.308769 
	C1076.869141,49.055859 1076.869141,73.656883 1076.869141,98.459915 
	C1085.489746,99.985641 1093.788452,101.454414 1102.626221,103.018585 
	C1102.626221,76.846443 1102.626221,50.826263 1102.626221,24.404068 
	C1136.201294,24.404068 1169.254028,24.404068 1202.654175,24.404068 
	C1202.654175,53.985806 1202.654175,83.704773 1202.654175,113.712524 
	C1169.552612,113.712524 1136.490601,113.712524 1103.128540,113.712524 
	C1103.128540,111.247177 1103.128540,108.960968 1103.128540,106.674751 
	C1102.783569,106.571503 1102.438599,106.468254 1102.093628,106.364998 
	C1099.122070,114.023781 1096.150513,121.682564 1092.968750,129.882950 
	C1137.327026,129.882950 1181.370239,129.882950 1225.705322,129.882950 
	C1225.705322,140.089325 1225.705322,149.808807 1225.705322,159.872925 
	C1201.920044,159.872925 1178.326172,159.872925 1154.732422,159.872925 
	C1179.112549,180.543945 1207.724487,191.760986 1238.593262,198.998535 
	C1239.000000,199.444443 1239.000000,199.888901 1239.000000,200.666672 
M1045.000000,257.312866 
	C1045.000000,246.702621 1045.000000,236.092392 1045.000000,225.284668 
	C1034.147705,225.284668 1023.768982,225.284668 1013.331665,225.284668 
	C1013.331665,237.283997 1013.331665,248.995682 1013.331665,260.997559 
	C1023.128235,260.997559 1032.597656,261.078430 1042.061035,260.878235 
	C1043.057617,260.857117 1044.019165,259.181000 1045.000000,257.312866 
M1139.687256,260.999664 
	C1148.631714,260.999664 1157.576050,260.999664 1166.715332,260.999664 
	C1166.715332,248.812057 1166.715332,237.101151 1166.715332,225.333328 
	C1156.381104,225.333328 1146.334717,225.333328 1136.002319,225.333328 
	C1136.002319,236.464127 1135.931274,247.265167 1136.120972,258.061646 
	C1136.138306,259.055054 1137.818848,260.019318 1139.687256,260.999664 
M1168.852417,85.193054 
	C1168.852417,74.262955 1168.852417,63.332855 1168.852417,52.324593 
	C1158.066162,52.324593 1147.686523,52.324593 1137.372803,52.324593 
	C1137.372803,63.699802 1137.372803,74.747063 1137.372803,85.856781 
	C1147.887085,85.856781 1158.029175,85.856781 1168.852417,85.193054 
M1042.855957,52.826565 
	C1032.363281,52.826565 1021.870605,52.826565 1011.341797,52.826565 
	C1011.341797,63.636890 1011.341797,74.682838 1011.341797,85.609741 
	C1022.068909,85.609741 1032.450562,85.609741 1042.978394,85.609741 
	C1042.978394,74.737961 1042.978394,64.255814 1042.855957,52.826565 
z"/>
<path fill="#2092FB" opacity="1.000000" stroke="none" 
	d="
M783.468628,294.000000 
	C781.067444,293.024597 779.217529,291.806549 777.188232,291.115601 
	C768.206360,288.057373 764.021057,282.500610 764.003113,273.249268 
	C763.987976,265.425812 764.000000,257.602264 764.000000,249.250305 
	C735.111633,249.250305 706.395142,249.250305 677.341064,249.250305 
	C677.341064,217.344757 677.341064,185.966278 677.341064,154.293289 
	C746.075745,154.293289 814.777466,154.293289 883.739746,154.293289 
	C883.739746,185.699387 883.739746,216.960129 883.739746,248.753738 
	C855.777710,248.753738 827.728149,248.753738 799.801331,248.753738 
	C797.430054,259.345581 800.358154,262.998260 810.684937,262.999390 
	C831.010742,263.001556 851.339050,262.799438 871.661499,263.061157 
	C889.043213,263.285034 891.906555,257.020050 894.958313,242.742188 
	C895.831970,238.654373 896.246338,234.468369 896.897888,230.151733 
	C902.516907,232.548416 907.534302,234.965012 912.747925,236.834290 
	C917.931152,238.692673 923.311523,240.000946 928.918762,241.642166 
	C927.458008,254.161911 925.672546,266.798828 919.798889,278.195587 
	C914.752197,287.987762 905.979919,292.766785 894.872070,293.006073 
	C893.047485,293.045380 891.224609,293.166016 889.200439,293.624512 
	C853.979126,294.000000 818.958191,294.000000 783.468628,294.000000 
M741.500000,212.000000 
	C731.751099,212.000000 722.002197,212.000000 712.398193,212.000000 
	C712.398193,216.743866 712.398193,220.794846 712.398193,224.744751 
	C729.716858,224.744751 746.636230,224.744751 763.691162,224.744751 
	C763.691162,220.435867 763.691162,216.387360 763.691162,212.000000 
	C756.424744,212.000000 749.462341,212.000000 741.500000,212.000000 
M799.003113,222.302429 
	C798.643921,225.668152 801.094971,224.982742 802.964355,224.987198 
	C813.786499,225.013000 824.608826,224.999954 835.431030,225.000015 
	C839.859192,225.000031 844.287292,225.000000 848.615356,225.000000 
	C848.615356,220.285583 848.615356,216.234573 848.615356,212.248840 
	C831.972107,212.248840 815.714722,212.248840 799.000244,212.248840 
	C799.000244,215.443573 799.000244,218.397064 799.003113,222.302429 
M747.498047,178.000000 
	C735.751648,178.000000 724.005188,178.000000 712.396484,178.000000 
	C712.396484,182.404694 712.396484,186.122025 712.396484,189.747162 
	C729.713379,189.747162 746.632812,189.747162 763.693054,189.747162 
	C763.693054,185.773285 763.693054,182.057373 763.693054,178.000000 
	C758.427002,178.000000 753.461731,178.000000 747.498047,178.000000 
M842.408997,178.000000 
	C828.005127,178.000000 813.601257,178.000000 799.249023,178.000000 
	C799.249023,182.344940 799.249023,185.947906 799.249023,189.712280 
	C815.873535,189.712280 832.247925,189.712280 848.656006,189.712280 
	C848.656006,185.699387 848.656006,181.983948 848.656006,178.000000 
	C846.672363,178.000000 845.026062,178.000000 842.408997,178.000000 
z"/>
<path fill="#2092FB" opacity="1.000000" stroke="none" 
	d="
M141.625000,1.000000 
	C147.866119,2.000075 153.721817,3.067352 159.601547,3.979686 
	C164.612000,4.757138 169.659882,5.295164 174.666168,6.095733 
	C175.482437,6.226264 176.300095,7.056468 176.894684,7.753113 
	C181.695099,13.377595 186.107422,19.378958 191.292587,24.617573 
	C197.434296,30.822615 203.912918,36.789505 210.811447,42.128365 
	C221.918777,50.724499 233.166336,59.219677 244.936325,66.861626 
	C265.505920,80.216949 287.069641,91.819435 310.061584,100.579826 
	C310.608276,100.788124 311.093048,101.158981 310.780212,100.979294 
	C301.840851,112.655693 292.896667,124.338387 283.025238,137.232254 
	C264.408722,126.833511 244.730179,115.841530 224.990875,104.815613 
	C224.990875,111.880226 224.990875,119.037231 224.990875,126.596466 
	C179.471207,126.596466 134.092972,126.596466 88.313797,126.596466 
	C88.313797,119.183266 88.313797,111.594475 88.313797,103.590797 
	C67.321671,115.862350 46.794136,127.862312 26.984196,139.442780 
	C19.472038,129.450668 12.757768,120.416740 5.893543,111.498222 
	C4.836778,110.125198 3.090419,109.282928 1.331490,108.097603 
	C1.000000,107.555557 1.000000,107.111107 1.388771,106.332214 
	C8.651110,103.072083 15.870187,100.756256 22.328350,97.097366 
	C37.054573,88.754196 51.615295,80.076378 65.863960,70.942802 
	C87.156601,57.293941 106.043938,40.640759 123.176765,22.108936 
	C129.114746,15.686090 133.762787,8.070695 139.000000,1.000001 
	C139.750000,1.000000 140.500000,1.000000 141.625000,1.000000 
M167.500000,91.000000 
	C180.488297,91.000000 193.476578,91.000000 205.734085,91.000000 
	C189.094131,75.279602 172.470642,59.574734 155.639694,43.673901 
	C142.034256,61.768539 123.595337,75.943108 104.328621,91.000000 
	C125.971527,91.000000 146.235764,91.000000 167.500000,91.000000 
z"/>
<path fill="#2092FB" opacity="1.000000" stroke="none" 
	d="
M124.468658,294.000000 
	C124.000000,257.533203 124.000000,221.066422 124.000000,184.061508 
	C97.590553,184.061508 71.534073,184.061508 45.241600,184.061508 
	C45.241600,171.923416 45.241600,160.321350 45.241600,148.358841 
	C116.959663,148.358841 188.677216,148.358841 260.772125,148.358841 
	C260.847290,149.941956 260.989532,151.550552 260.990234,153.159210 
	C261.003479,183.491104 261.134460,213.823959 260.916077,244.154282 
	C260.852539,252.974564 258.822144,261.332336 251.823166,267.757019 
	C246.793945,272.373566 240.813736,275.470184 234.330383,275.782959 
	C220.793472,276.436096 207.203094,275.980713 193.982056,275.980713 
	C191.422363,263.551788 188.741318,250.533676 185.954102,237.000000 
	C192.977737,237.000000 200.709030,237.000214 208.440323,236.999924 
	C219.054550,236.999542 221.666733,234.835434 221.921875,224.265488 
	C222.239349,211.113022 221.998032,197.947083 221.998032,184.393753 
	C202.445999,184.393753 183.058838,184.393753 163.000000,184.393753 
	C163.000000,220.546021 163.000000,256.804352 163.000000,293.531342 
	C150.312439,294.000000 137.624878,294.000000 124.468658,294.000000 
z"/>
<path fill="#FFFFFF" opacity="1.000000" stroke="none" 
	d="
M138.531342,1.000001 
	C133.762787,8.070695 129.114746,15.686090 123.176765,22.108936 
	C106.043938,40.640759 87.156601,57.293941 65.863960,70.942802 
	C51.615295,80.076378 37.054573,88.754196 22.328350,97.097366 
	C15.870187,100.756256 8.651110,103.072083 1.388771,105.998878 
	C1.000000,71.063110 1.000000,36.126225 1.000000,1.000000 
	C46.687386,1.000000 92.375038,1.000000 138.531342,1.000001 
z"/>
<path fill="#2092FB" opacity="1.000000" stroke="none" 
	d="
M356.747589,239.751450 
	C355.233917,241.519928 353.971405,243.037643 353.463654,243.648026 
	C343.534180,236.269394 334.491486,229.373489 325.228241,222.787842 
	C322.855865,221.101242 322.123322,219.886246 324.513794,218.013229 
	C338.033295,207.420258 348.261047,193.770935 358.080109,180.048615 
	C367.929901,166.283417 376.117096,151.328125 385.014740,136.883194 
	C385.419495,136.226120 385.645111,135.458679 386.211151,134.147141 
	C367.691193,134.147141 349.649231,134.147141 331.306702,134.147141 
	C331.306702,122.935616 331.306702,112.216064 331.306702,101.131836 
	C350.064453,101.131836 368.668579,101.131836 387.634918,101.131836 
	C387.634918,91.386330 387.634918,81.993507 387.634918,71.992981 
	C373.784821,74.018143 359.983459,76.036186 346.291656,78.038200 
	C341.594482,67.077705 336.963470,56.271542 332.403595,45.631424 
	C372.846405,41.310009 412.789398,34.669987 450.955780,18.400982 
	C457.736267,27.894869 464.710632,37.660206 472.520721,48.595711 
	C458.440796,52.998589 445.718994,57.289463 432.798370,60.861225 
	C427.723053,62.264240 425.521729,64.049515 425.840485,69.738045 
	C426.407990,79.866821 426.000000,90.050247 426.000000,100.749718 
	C441.214905,100.749718 456.274109,100.749718 471.664185,100.749718 
	C471.664185,112.004112 471.664185,122.724220 471.664185,133.973648 
	C456.534363,133.973648 441.464447,133.973648 426.659088,133.973648 
	C423.331787,142.636276 430.510498,146.205292 434.409607,150.530579 
	C440.902496,157.733200 448.471466,164.017441 455.923279,170.289185 
	C463.056000,176.292297 470.605255,181.801743 478.003204,187.486832 
	C478.947021,188.212143 480.082458,188.688049 481.915924,189.724075 
	C481.915924,144.013062 481.915924,99.289520 481.915924,54.284378 
	C523.657654,54.284378 564.924988,54.284378 606.596436,54.284378 
	C606.596436,124.203926 606.596436,194.254089 606.596436,264.652130 
	C565.351624,264.652130 523.966614,264.652130 482.240997,264.652130 
	C482.240997,240.688507 482.240997,216.751892 482.240997,192.815262 
	C481.795227,192.503632 481.349487,192.191986 480.903717,191.880356 
	C474.224091,199.413025 467.348206,206.784393 460.960175,214.556763 
	C458.357178,217.723831 457.047089,218.792313 453.617462,215.329620 
	C447.120209,208.769730 439.935425,202.895920 433.165710,196.597961 
	C430.820648,194.416351 428.859467,191.822144 426.111633,188.728058 
	C426.111633,223.525558 426.111633,257.415741 426.111633,291.652100 
	C413.353821,291.652100 400.967041,291.652100 388.019043,291.652100 
	C388.019043,261.291626 388.019043,230.960114 388.019043,200.597275 
	C377.520966,213.763214 367.259888,226.631943 356.747589,239.751450 
M569.000000,188.500000 
	C569.000000,155.090942 569.000000,121.681892 569.000000,88.393875 
	C552.597290,88.393875 536.880981,88.393875 521.253296,88.393875 
	C521.253296,136.040390 521.253296,183.293015 521.253296,230.694519 
	C537.222717,230.694519 552.937256,230.694519 569.000000,230.694519 
	C569.000000,216.761292 569.000000,203.130646 569.000000,188.500000 
z"/>
<path fill="#2092FB" opacity="1.000000" stroke="none" 
	d="
M663.999512,130.000000 
	C657.864929,130.000000 652.229919,130.000000 646.300293,130.000000 
	C646.300293,107.925545 646.300293,86.210236 646.300293,64.141464 
	C685.392151,64.141464 724.320251,64.141464 763.623535,64.141464 
	C763.623535,59.746422 763.623535,55.693676 763.623535,51.104546 
	C730.633545,51.104546 697.582764,51.104546 664.268188,51.104546 
	C664.268188,41.979965 664.268188,33.378906 664.268188,24.387562 
	C742.556030,24.387562 820.926208,24.387562 899.648193,24.387562 
	C899.648193,32.967995 899.648193,41.687492 899.648193,50.940857 
	C866.250549,50.940857 832.867004,50.940857 799.244202,50.940857 
	C799.244202,55.399059 799.244202,59.336227 799.244202,63.802601 
	C838.272827,63.802601 877.322083,63.802601 916.684204,63.802601 
	C916.684204,86.042992 916.684204,107.758385 916.684204,129.737549 
	C905.301697,129.737549 894.034363,129.737549 882.228821,129.737549 
	C882.228821,116.429405 882.228821,103.038857 882.228821,89.326675 
	C854.313354,89.326675 826.932373,89.326675 799.192017,89.326675 
	C799.192017,107.671623 799.192017,125.939392 799.192017,144.602570 
	C787.459106,144.602570 776.072388,144.602570 764.146851,144.602570 
	C764.146851,126.344193 764.146851,107.954987 764.146851,89.286484 
	C736.231812,89.286484 708.851013,89.286484 681.110107,89.286484 
	C681.110107,102.753036 681.110107,116.022972 681.110107,130.000000 
	C675.350342,130.000000 669.924622,130.000000 663.999512,130.000000 
z"/>
<path fill="#2092FB" opacity="1.000000" stroke="none" 
	d="
M831.000122,97.000000 
	C844.791260,97.000000 858.082336,97.000000 871.685425,97.000000 
	C871.685425,103.375122 871.685425,109.424156 871.685425,115.738098 
	C851.313110,115.738098 831.060181,115.738098 810.403137,115.738098 
	C810.403137,109.811996 810.403137,103.759819 810.403137,97.000000 
	C816.993164,97.000000 823.746643,97.000000 831.000122,97.000000 
z"/>
<path fill="#2092FB" opacity="1.000000" stroke="none" 
	d="
M843.000000,124.000000 
	C852.794556,124.000000 862.089172,124.000000 871.690186,124.000000 
	C871.690186,130.385315 871.690186,136.434113 871.690186,142.742859 
	C851.303467,142.742859 831.050598,142.742859 810.398376,142.742859 
	C810.398376,136.801712 810.398376,130.749939 810.398376,124.000000 
	C821.003296,124.000000 831.751648,124.000000 843.000000,124.000000 
z"/>
<path fill="#2092FB" opacity="1.000000" stroke="none" 
	d="
M752.000000,131.063110 
	C752.000000,135.181183 752.000000,138.811188 752.000000,142.715683 
	C731.569885,142.715683 711.530884,142.715683 691.245605,142.715683 
	C691.245605,136.604813 691.245605,130.672531 691.245605,124.368553 
	C711.258789,124.368553 731.298401,124.368553 752.000000,124.368553 
	C752.000000,126.385139 752.000000,128.480103 752.000000,131.063110 
z"/>
<path fill="#2092FB" opacity="1.000000" stroke="none" 
	d="
M691.980469,97.166603 
	C711.017334,97.120499 730.054138,97.074387 749.647949,97.272491 
	C750.367493,97.734840 750.577026,97.889381 750.833496,97.980316 
	C751.212769,103.353706 751.592102,108.727097 751.727356,114.652718 
	C751.265137,115.367523 751.110535,115.577011 751.019531,115.833389 
	C731.649353,115.879501 712.279175,115.925613 692.352051,115.727509 
	C691.632507,115.265160 691.422974,115.110619 691.166504,115.019684 
	C691.120422,109.648773 691.074402,104.277863 691.272522,98.350998 
	C691.734863,97.632477 691.889465,97.422989 691.980469,97.166603 
z"/>
<path fill="#2092FB" opacity="1.000000" stroke="none" 
	d="
M751.269714,115.855270 
	C751.110535,115.577011 751.265137,115.367523 751.658386,115.113487 
	C751.728943,115.307060 751.624451,115.592102 751.269714,115.855270 
z"/>
<path fill="#2092FB" opacity="1.000000" stroke="none" 
	d="
M691.144775,115.269852 
	C691.422974,115.110619 691.632507,115.265160 691.886597,115.658340 
	C691.693054,115.728935 691.408020,115.624474 691.144775,115.269852 
z"/>
<path fill="#2092FB" opacity="1.000000" stroke="none" 
	d="
M750.855225,97.730148 
	C750.577026,97.889381 750.367493,97.734840 750.113403,97.341652 
	C750.306946,97.271057 750.591980,97.375511 750.855225,97.730148 
z"/>
<path fill="#2092FB" opacity="1.000000" stroke="none" 
	d="
M691.730225,97.144722 
	C691.889465,97.422989 691.734863,97.632477 691.341553,97.886505 
	C691.270996,97.692924 691.375549,97.407883 691.730225,97.144722 
z"/>
<path fill="#FFFFFF" opacity="1.000000" stroke="none" 
	d="
M1044.998535,257.792786 
	C1044.019165,259.181000 1043.057617,260.857117 1042.061035,260.878235 
	C1032.597656,261.078430 1023.128235,260.997559 1013.331665,260.997559 
	C1013.331665,248.995682 1013.331665,237.283997 1013.331665,225.284668 
	C1023.768982,225.284668 1034.147705,225.284668 1045.000000,225.284668 
	C1045.000000,236.092392 1045.000000,246.702621 1044.998535,257.792786 
z"/>
<path fill="#FFFFFF" opacity="1.000000" stroke="none" 
	d="
M1139.207275,260.998413 
	C1137.818848,260.019318 1136.138306,259.055054 1136.120972,258.061646 
	C1135.931274,247.265167 1136.002319,236.464127 1136.002319,225.333328 
	C1146.334717,225.333328 1156.381104,225.333328 1166.715332,225.333328 
	C1166.715332,237.101151 1166.715332,248.812057 1166.715332,260.999664 
	C1157.576050,260.999664 1148.631714,260.999664 1139.207275,260.998413 
z"/>
<path fill="#FFFFFF" opacity="1.000000" stroke="none" 
	d="
M1168.511841,85.524918 
	C1158.029175,85.856781 1147.887085,85.856781 1137.372803,85.856781 
	C1137.372803,74.747063 1137.372803,63.699802 1137.372803,52.324593 
	C1147.686523,52.324593 1158.066162,52.324593 1168.852417,52.324593 
	C1168.852417,63.332855 1168.852417,74.262955 1168.511841,85.524918 
z"/>
<path fill="#FFFFFF" opacity="1.000000" stroke="none" 
	d="
M1042.917236,53.300117 
	C1042.978394,64.255814 1042.978394,74.737961 1042.978394,85.609741 
	C1032.450562,85.609741 1022.068909,85.609741 1011.341797,85.609741 
	C1011.341797,74.682838 1011.341797,63.636890 1011.341797,52.826565 
	C1021.870605,52.826565 1032.363281,52.826565 1042.917236,53.300117 
z"/>
<path fill="#FFFFFF" opacity="1.000000" stroke="none" 
	d="
M741.999939,212.000000 
	C749.462341,212.000000 756.424744,212.000000 763.691162,212.000000 
	C763.691162,216.387360 763.691162,220.435867 763.691162,224.744751 
	C746.636230,224.744751 729.716858,224.744751 712.398193,224.744751 
	C712.398193,220.794846 712.398193,216.743866 712.398193,212.000000 
	C722.002197,212.000000 731.751099,212.000000 741.999939,212.000000 
z"/>
<path fill="#FFFFFF" opacity="1.000000" stroke="none" 
	d="
M799.001709,221.826492 
	C799.000244,218.397064 799.000244,215.443573 799.000244,212.248840 
	C815.714722,212.248840 831.972107,212.248840 848.615356,212.248840 
	C848.615356,216.234573 848.615356,220.285583 848.615356,225.000000 
	C844.287292,225.000000 839.859192,225.000031 835.431030,225.000015 
	C824.608826,224.999954 813.786499,225.013000 802.964355,224.987198 
	C801.094971,224.982742 798.643921,225.668152 799.001709,221.826492 
z"/>
<path fill="#FFFFFF" opacity="1.000000" stroke="none" 
	d="
M747.997253,178.000000 
	C753.461731,178.000000 758.427002,178.000000 763.693054,178.000000 
	C763.693054,182.057373 763.693054,185.773285 763.693054,189.747162 
	C746.632812,189.747162 729.713379,189.747162 712.396484,189.747162 
	C712.396484,186.122025 712.396484,182.404694 712.396484,178.000000 
	C724.005188,178.000000 735.751648,178.000000 747.997253,178.000000 
z"/>
<path fill="#FFFFFF" opacity="1.000000" stroke="none" 
	d="
M842.894409,178.000000 
	C845.026062,178.000000 846.672363,178.000000 848.656006,178.000000 
	C848.656006,181.983948 848.656006,185.699387 848.656006,189.712280 
	C832.247925,189.712280 815.873535,189.712280 799.249023,189.712280 
	C799.249023,185.947906 799.249023,182.344940 799.249023,178.000000 
	C813.601257,178.000000 828.005127,178.000000 842.894409,178.000000 
z"/>
<path fill="#FFFFFF" opacity="1.000000" stroke="none" 
	d="
M167.000000,91.000000 
	C146.235764,91.000000 125.971527,91.000000 104.328621,91.000000 
	C123.595337,75.943108 142.034256,61.768539 155.639694,43.673901 
	C172.470642,59.574734 189.094131,75.279602 205.734085,91.000000 
	C193.476578,91.000000 180.488297,91.000000 167.000000,91.000000 
z"/>
<path fill="#FFFFFF" opacity="1.000000" stroke="none" 
	d="
M569.000000,189.000000 
	C569.000000,203.130646 569.000000,216.761292 569.000000,230.694519 
	C552.937256,230.694519 537.222717,230.694519 521.253296,230.694519 
	C521.253296,183.293015 521.253296,136.040390 521.253296,88.393875 
	C536.880981,88.393875 552.597290,88.393875 569.000000,88.393875 
	C569.000000,121.681892 569.000000,155.090942 569.000000,189.000000 
z"/>
</svg>